PathFileType	4	(X/Y/Z)	C:\Users\Basilio\Documents\Thesis Gigler\squatting_fais\c3dfiles\041\SLS_pre_front2\markers_experimental.trc
DataRate	CameraRate	NumFrames	NumMarkers	Units	OrigDataRate	OrigDataStartFrame	OrigNumFrames
200.000000	200.000000	4	62	mm	200.000000	1246	1425
Frame#	Time	FHD			LBHD			RBHD			C7			T10			CLAV			LSHO			LUUPA			LMUPA			LDUPA			LLEP			LMEP			LRAD			LUL			LRFIN			RSHO			RUPA1			RMUPA			RDUPA			RLEP			RMEP			RRAD			RUL			RUFIN			LASI			RASI			USACR			LSACR			RSACR			LTHI1			LTHI2			LTHI3			LTHI4			LLFC			LMFC			LTIB1			LTIB2			LTIB3			LTIB4			LLMAL			LMMAL			LHEE			LMT1			LMT2			LMT5			RTHI			RTHI2			RTHI3			RTHI4			RLFC			RMFC			RTIB1			RTIB2			RTIB3			RTIB4			RLMAL			RMMAL			RHEE			RMT1			RMT2			RMT5			*61			
		X1	Y1	Z1	X2	Y2	Z2	X3	Y3	Z3	X4	Y4	Z4	X5	Y5	Z5	X6	Y6	Z6	X7	Y7	Z7	X8	Y8	Z8	X9	Y9	Z9	X10	Y10	Z10	X11	Y11	Z11	X12	Y12	Z12	X13	Y13	Z13	X14	Y14	Z14	X15	Y15	Z15	X16	Y16	Z16	X17	Y17	Z17	X18	Y18	Z18	X19	Y19	Z19	X20	Y20	Z20	X21	Y21	Z21	X22	Y22	Z22	X23	Y23	Z23	X24	Y24	Z24	X25	Y25	Z25	X26	Y26	Z26	X27	Y27	Z27	X28	Y28	Z28	X29	Y29	Z29	X30	Y30	Z30	X31	Y31	Z31	X32	Y32	Z32	X33	Y33	Z33	X34	Y34	Z34	X35	Y35	Z35	X36	Y36	Z36	X37	Y37	Z37	X38	Y38	Z38	X39	Y39	Z39	X40	Y40	Z40	X41	Y41	Z41	X42	Y42	Z42	X43	Y43	Z43	X44	Y44	Z44	X45	Y45	Z45	X46	Y46	Z46	X47	Y47	Z47	X48	Y48	Z48	X49	Y49	Z49	X50	Y50	Z50	X51	Y51	Z51	X52	Y52	Z52	X53	Y53	Z53	X54	Y54	Z54	X55	Y55	Z55	X56	Y56	Z56	X57	Y57	Z57	X58	Y58	Z58	X59	Y59	Z59	X60	Y60	Z60	X61	Y61	Z61	X62	Y62	Z62	

1247	6.23	-206.4520721435547	1793.341674804688	-954.3869628906252	-377.8363037109376	1698.206298828125	-1014.185852050781	-347.5399475097657	1710.432739257813	-864.237976074219	-394.7324829101564	1563.780517578125	-947.5980224609377	-420.1163635253907	1247.264770507813	-927.4539184570315	-236.1107482910157	1501.608032226563	-956.6035766601565	-326.6537170410157	1548.460815429688	-1124.612182617188	-367.4837036132813	1359.5048828125	-1210.419921875	-330.0764160156251	1328.411743164063	-1208.346557617188	-376.3810729980469	1292.547241210938	-1227.219116210938	-380.3863525390626	1242.539306640625	-1233.753540039063	-374.5831604003907	1203.315795898438	-1154.758422851563	-185.4555358886719	1043.403930664063	-1250.671875	-249.8486785888672	1012.317932128906	-1271.861083984375	-145.4214019775391	994.9898681640627	-1297.870361328125	-291.2420043945313	1556.445190429688	-782.5908813476565	-367.7911682128907	1366.415161132813	-671.4002075195314	-320.8117675781251	1348.442260742188	-670.7730712890626	-350.4810791015626	1301.630859375	-649.9640502929689	-347.8731689453126	1257.185546875	-637.6907958984376	-377.2220458984376	1225.527221679688	-718.7256469726564	-215.0594635009766	1029.725708007813	-685.9945678710939	-268.2137451171876	1011.637756347656	-632.6514282226564	-170.8819427490235	967.673767089844	-667.5686645507814	-254.7484741210938	1059.830200195313	-1047.887573242188	-249.4208374023438	1052.944580078125	-820.286315917969	-427.8484191894532	1134.47607421875	-925.8225097656252	-444.4434814453126	1109.009643554688	-951.8118896484377	-442.6103515625001	1108.534423828125	-897.663757324219	-374.4107360839844	856.9372558593752	-1115.473388671875	-339.5659179687501	780.1470947265627	-1115.270751953125	-291.6660461425782	783.374938964844	-1107.841674804688	-366.7132873535157	726.5803833007814	-1105.895263671875	-349.4322204589844	546.4724121093751	-1098.585083007813	-340.0351867675782	522.1571655273439	-979.9907836914065	-316.4015197753907	353.2257995605469	-1050.9931640625	-364.7218322753907	311.9548645019532	-1114.638671875	-325.5367736816407	307.6561889648438	-1089.468383789063	-327.2227172851563	228.473617553711	-1060.501220703125	-384.3840332031251	135.1541595458985	-1103.000122070313	-345.9027404785157	137.5942687988282	-1022.562927246094	-449.2454528808595	118.3846282958985	-1062.050170898438	-241.6888122558594	63.62221145629884	-1039.3935546875	-235.3233184814454	59.03864669799806	-1085.456420898438	-284.4552001953126	45.14948654174805	-1137.36474609375	-351.8837585449219	792.927185058594	-741.0795288085939	-310.5046691894532	741.4863281250001	-738.5545654296876	-277.8594665527344	745.1229248046876	-743.3642578125001	-332.4753417968751	660.3721923828126	-751.8355712890626	-320.7708435058594	536.7964477539064	-748.5877685546876	-305.2502746582032	514.5104980468751	-865.6352539062502	-296.3381042480469	367.3466186523438	-751.9454345703126	-383.7925415039063	298.1460571289063	-732.8958129882814	-337.2991638183594	292.0954589843751	-733.8980712890626	-319.0390625000001	241.5538482666016	-761.3292236328126	-385.6612243652345	133.2174377441407	-743.7070312500001	-354.7998046875001	142.3718872070313	-821.830261230469	-446.101531982422	112.4152908325196	-793.932556152344	-238.5842742919922	56.06680297851564	-802.9031372070315	-234.8540954589844	57.38970947265626	-750.3940429687501	-281.7715454101563	49.47062301635744	-701.6765747070314	-4216.755371093751	853.1060180664065	-3944.709472656251	
1248	6.235	-206.1127014160157	1793.355102539063	-952.8620605468752	-377.4595336914063	1698.236572265625	-1012.739013671875	-347.3842163085938	1710.221923828125	-862.529235839844	-394.3628540039064	1563.790405273438	-946.4317626953127	-419.6262207031251	1247.213500976563	-926.7821044921877	-235.3925170898438	1501.650512695313	-955.382995605469	-326.2790222167969	1548.615234375	-1123.54931640625	-367.1655883789063	1359.135009765625	-1208.998779296875	-330.6759033203126	1328.433837890625	-1206.741943359375	-377.2507324218751	1292.646606445313	-1225.598876953125	-381.4355163574219	1242.57861328125	-1231.999877929688	-376.0479431152344	1203.479736328125	-1152.775024414063	-188.6639251708985	1041.333618164063	-1248.45458984375	-253.5759735107422	1011.177368164063	-1269.60986328125	-149.3412780761719	992.2313232421877	-1295.4599609375	-291.1653137207032	1556.128051757813	-781.2108154296877	-368.2896118164063	1366.168212890625	-670.4172363281251	-321.0706176757813	1348.029052734375	-670.1015014648439	-350.9944152832032	1301.19775390625	-649.1920166015626	-348.8435668945313	1256.67529296875	-637.0128784179689	-377.9080505371094	1225.318359375	-718.2114868164064	-217.8214874267579	1027.861694335938	-684.3327026367189	-271.3343200683594	1010.479553222656	-631.1967163085939	-174.3740997314453	965.192810058594	-665.6658935546876	-254.4433746337891	1059.816040039063	-1047.376220703125	-249.5262603759766	1052.794189453125	-819.5582275390627	-427.3924255371095	1134.394775390625	-925.214050292969	-444.1131286621095	1108.952026367188	-951.1571044921877	-442.9183349609376	1108.700561523438	-896.9833984375002	-374.3739318847657	857.0144653320315	-1115.017822265625	-339.4362182617188	780.0659790039065	-1114.74267578125	-291.6858520507813	783.4256591796877	-1107.252319335938	-366.6756896972657	726.7321777343751	-1105.346069335938	-349.5026245117188	546.4884643554689	-1098.253784179688	-340.0873107910157	522.0594482421876	-979.7322387695315	-316.6705627441407	353.2083435058594	-1050.761840820313	-364.8500366210938	312.0390319824219	-1114.523803710938	-325.5157165527344	307.7171325683594	-1089.35302734375	-327.3363037109376	228.7205963134766	-1060.286987304688	-384.402801513672	135.2051239013672	-1102.9970703125	-345.8450317382813	137.6313629150391	-1022.540222167969	-449.3406982421876	118.5767517089844	-1062.1259765625	-241.7450714111329	63.61899566650392	-1039.4013671875	-235.3078308105469	59.0040969848633	-1085.426513671875	-284.4799194335938	45.22329711914063	-1137.395874023438	-351.5989990234376	792.8071289062502	-740.5441894531251	-310.2644042968751	741.3460083007814	-738.1370849609376	-277.5726623535157	744.9844970703126	-742.9365844726564	-332.4314880371094	660.3001708984376	-751.5841064453126	-320.6452026367188	536.7335205078126	-748.2723388671876	-305.0270690917969	514.5187377929689	-865.250915527344	-296.2401733398438	367.2087402343751	-751.7384033203126	-383.6688537597657	297.9763793945313	-732.7691040039064	-337.3274536132813	291.9639282226563	-733.8494873046876	-319.0169982910157	241.5050354003907	-761.1671752929689	-385.6734619140626	133.193603515625	-743.6828613281251	-354.8540954589844	142.3395233154297	-821.7518310546877	-446.1025390625001	112.4219589233399	-793.9321289062502	-238.5555572509766	56.04097747802736	-802.873474121094	-234.8569335937501	57.32259368896486	-750.3615112304689	-281.8061523437501	49.412410736084	-701.6618652343751	-4217.347167968751	853.191101074219	-3944.653808593751	
1249	6.24	-205.9209136962891	1793.25244140625	-951.1676025390627	-377.2102050781251	1698.303588867188	-1011.378540039063	-347.1486511230469	1710.161987304688	-861.1514282226565	-394.0389099121095	1563.849609375	-945.201599121094	-419.385467529297	1247.17138671875	-926.1054687500002	-235.248764038086	1501.589599609375	-954.4138793945315	-325.9573059082032	1548.73681640625	-1122.325073242188	-367.6622924804688	1359.149169921875	-1207.56494140625	-331.1946716308594	1328.134033203125	-1205.175537109375	-378.0164794921876	1292.723876953125	-1223.981811523438	-382.3472595214844	1242.54296875	-1230.132934570313	-377.4089050292969	1203.703735351563	-1150.876586914063	-191.6555328369141	1039.333984375	-1246.32373046875	-256.8610839843751	1009.752990722656	-1267.39697265625	-152.7281799316407	989.7019042968752	-1293.008056640625	-290.9216003417969	1555.861328125	-779.888122558594	-368.5682067871094	1365.883911132813	-669.7236328125001	-321.5644226074219	1347.616088867188	-669.2503662109376	-351.5252380371094	1300.84033203125	-648.4978027343751	-349.5864257812501	1256.198974609375	-636.4022827148439	-378.4872741699219	1225.16748046875	-717.7086181640626	-221.0298156738282	1025.723754882813	-682.4478149414064	-274.7261657714844	1009.30517578125	-629.6425170898439	-178.1070251464844	962.9980468750002	-663.6121826171876	-254.2290649414063	1059.914672851563	-1046.742309570313	-247.9216461181641	1053.4384765625	-818.4766845703127	-427.1531982421876	1134.423706054688	-924.5835571289065	-443.8235473632814	1108.981689453125	-950.5593872070315	-443.1259155273439	1108.789306640625	-896.3488769531252	-374.3478088378907	857.142272949219	-1114.327026367188	-339.2409362792969	780.0786743164065	-1114.202514648438	-291.5368652343751	783.358825683594	-1106.621337890625	-366.6555480957032	726.9238281250001	-1104.843017578125	-349.6051330566407	546.5844726562501	-1097.907104492188	-340.1749572753907	522.0212402343751	-979.376403808594	-316.7505493164063	353.2058105468751	-1050.606811523438	-364.8135681152344	312.0701599121094	-1114.310791015625	-325.5108337402344	307.7589721679688	-1089.295776367188	-327.3471984863282	228.7465057373047	-1060.213012695313	-384.3643798828126	135.23388671875	-1102.931274414063	-345.8377685546876	137.6417846679688	-1022.513427734375	-449.3583068847657	118.603256225586	-1062.119873046875	-241.7059631347657	63.6024513244629	-1039.422973632813	-235.3161315917969	59.0366668701172	-1085.434448242188	-285.1814575195313	45.57214355468751	-1137.579956054688	-351.4485778808594	792.7043457031252	-740.0574340820314	-310.0485839843751	741.3473510742189	-737.6939697265626	-277.3111267089844	744.9907226562501	-742.3363647460939	-332.2106018066407	660.2286376953126	-751.1464843750001	-320.5321350097657	536.6599731445314	-747.9591674804689	-304.9381408691407	514.4951171875001	-864.8985595703127	-296.1614685058594	367.1255493164063	-751.4765014648439	-383.6441040039063	297.8943786621094	-732.6661987304689	-337.3181152343751	291.8194885253907	-733.6359863281251	-318.9853515625001	241.4127349853516	-761.0413818359376	-385.6826782226564	133.1628112792969	-743.6566162109376	-354.9249572753907	142.386703491211	-821.7568359375002	-446.0674438476564	112.4152526855469	-793.9075927734377	-238.5451812744141	56.04560852050783	-802.8874511718752	-234.854476928711	57.31966018676759	-750.3296508789064	-281.8063049316407	49.35495376586915	-701.6677856445314	-4216.862792968751	853.2133789062502	-3944.837158203126	
1250	6.245	-205.3751220703126	1793.421997070313	-949.8882446289065	-376.7752990722657	1698.316528320313	-1009.813415527344	-346.6653442382813	1710.037841796875	-859.6859130859377	-393.7077636718751	1563.902099609375	-944.0196533203127	-419.0590209960939	1247.166137695313	-925.198913574219	-235.2431945800782	1501.464599609375	-952.8771972656252	-325.6465759277344	1548.890991210938	-1121.294311523438	-368.3426818847657	1359.430541992188	-1206.168334960938	-331.9017028808594	1328.070068359375	-1203.643920898438	-378.7684936523438	1292.710327148438	-1222.407470703125	-383.7129821777344	1242.754760742188	-1228.439453125	-378.7917785644532	1203.986328125	-1148.963989257813	-195.0227355957032	1037.379516601563	-1244.102905273438	-260.5993347167969	1008.427551269531	-1265.2158203125	-156.8677520751953	986.8928833007815	-1290.327270507813	-290.8047790527344	1555.518188476563	-778.6130981445315	-368.7065124511719	1365.640747070313	-669.0114135742189	-321.9519958496094	1347.405639648438	-668.1399536132814	-352.0791320800782	1300.354370117188	-647.8334960937501	-350.3336791992188	1255.87744140625	-635.8338623046876	-379.0658874511719	1224.989868164063	-717.1578369140626	-223.8649902343751	1023.796813964844	-680.8716430664064	-277.8871154785157	1008.294616699219	-628.1093139648439	-181.7949676513672	960.6175537109377	-661.7005615234376	-254.5009765625001	1060.2001953125	-1046.047485351563	-247.7644805908204	1053.330078125	-817.9240722656252	-426.8651428222657	1134.467407226563	-923.864196777344	-443.6244506835939	1109.043579101563	-949.8403320312502	-442.8785400390626	1108.837646484375	-895.5983886718752	-374.1871643066407	857.1743164062502	-1113.8037109375	-339.0828247070313	780.1394653320315	-1113.729248046875	-291.4029235839844	783.3424072265627	-1106.165893554688	-366.6729431152344	727.0454101562501	-1104.516479492188	-349.5820922851563	546.5921630859376	-1097.496948242188	-340.2329406738282	522.0192260742189	-979.0417480468752	-316.7308349609376	353.2721557617188	-1050.470825195313	-364.8721008300782	312.1570129394532	-1114.179443359375	-325.5175781250001	307.8492126464844	-1089.19921875	-327.3708801269532	228.8000793457032	-1060.163818359375	-384.3878173828126	135.3018035888672	-1102.926391601563	-345.8179016113282	137.6656494140625	-1022.501892089844	-448.8944091796876	117.9876480102539	-1062.122802734375	-241.4178314208985	63.44325637817384	-1039.43408203125	-235.3094024658204	59.04297256469728	-1085.439086914063	-284.3935852050782	45.26897430419923	-1137.380126953125	-351.2691650390626	792.650085449219	-739.5479736328126	-309.8697509765626	741.2250976562501	-737.1380615234376	-277.0700073242188	744.9744262695314	-742.0177001953126	-332.0518493652344	660.1942749023439	-750.6558227539064	-320.4078979492188	536.5449218750001	-747.5863647460939	-304.7961425781251	514.5214843750001	-864.5911254882815	-296.1217041015626	367.1427001953126	-751.2553710937501	-383.6051940917969	297.7881774902344	-732.4093017578126	-337.2914428710938	291.7303161621094	-733.3978881835939	-318.9199523925782	241.2860717773438	-760.9836425781251	-385.6862792968751	133.1441345214844	-743.6232299804689	-354.8902893066407	142.3947143554688	-821.7076416015627	-446.0757751464845	112.4234390258789	-793.8922119140627	-238.5168609619141	56.00115203857423	-802.8635253906252	-234.8745880126954	57.29478454589845	-750.3046264648439	-281.7929992675782	49.36506271362306	-701.6242065429689	-4217.214843750001	853.2458496093752	-3944.790527343751	
